<?xml version="1.0" encoding="UTF-8" standalone="no"?>
<svg
   xmlns:dc="http://purl.org/dc/elements/1.1/"
   xmlns:cc="http://creativecommons.org/ns#"
   xmlns:rdf="http://www.w3.org/1999/02/22-rdf-syntax-ns#"
   xmlns:svg="http://www.w3.org/2000/svg"
   xmlns="http://www.w3.org/2000/svg"
   xmlns:sodipodi="http://sodipodi.sourceforge.net/DTD/sodipodi-0.dtd"
   xmlns:inkscape="http://www.inkscape.org/namespaces/inkscape"
   id="svg2"
   sodipodi:version="0.32"
   inkscape:version="1.0.2 (1.0.2+r75+1)"
   width="367.90097pt"
   height="418.99759pt"
   version="1.0"
   sodipodi:docname="Courbe_niveau.svg"
   inkscape:export-filename="/home/jeppesen/workspace/kwantrace/image/Courbe_niveau.png"
   inkscape:export-xdpi="54.988384"
   inkscape:export-ydpi="54.988384">
  <metadata
     id="metadata7">
    <rdf:RDF>
      <cc:Work
         rdf:about="">
        <dc:format>image/svg+xml</dc:format>
        <dc:type
           rdf:resource="http://purl.org/dc/dcmitype/StillImage" />
        <dc:title></dc:title>
      </cc:Work>
    </rdf:RDF>
  </metadata>
  <defs
     id="defs5" />
  <sodipodi:namedview
     inkscape:window-height="1043"
     inkscape:window-width="1920"
     inkscape:pageshadow="2"
     inkscape:pageopacity="1"
     borderopacity="1.0"
     bordercolor="#666666"
     pagecolor="#ffffff"
     id="base"
     inkscape:zoom="0.61658854"
     inkscape:cx="-45.188878"
     inkscape:cy="263.15588"
     inkscape:window-x="3840"
     inkscape:window-y="0"
     inkscape:current-layer="svg2"
     inkscape:document-rotation="0"
     showgrid="false"
     fit-margin-top="0"
     fit-margin-left="0"
     fit-margin-right="0"
     fit-margin-bottom="0"
     inkscape:window-maximized="1" />
  <rect
     style="opacity:1;fill:#d39f4d;fill-opacity:1;fill-rule:nonzero;stroke:#000000;stroke-width:1;stroke-linecap:round;stroke-miterlimit:4;stroke-dasharray:none;stroke-dashoffset:0;stroke-opacity:1"
     id="rect3054"
     width="352.47824"
     height="21.840055"
     x="57.507442"
     y="163.12241" />
  <path
     style="fill:none;fill-opacity:0.75;fill-rule:evenodd;stroke:#000000;stroke-width:1;stroke-linecap:butt;stroke-linejoin:miter;stroke-miterlimit:4;stroke-dasharray:none;stroke-opacity:1"
     d="m 50.595072,187.53424 c 94.601368,-384.13584 127.931238,-67.75741 439.833428,0"
     id="path3056"
     sodipodi:nodetypes="cc" />
  <rect
     style="opacity:1;fill:#d39f4d;fill-opacity:1;fill-rule:nonzero;stroke:#000000;stroke-width:1;stroke-linecap:round;stroke-miterlimit:4;stroke-dasharray:none;stroke-dashoffset:0;stroke-opacity:1"
     id="rect3058"
     width="297.66879"
     height="21.840055"
     x="62.790394"
     y="140.74513" />
  <rect
     style="opacity:1;fill:#d39f4d;fill-opacity:1;fill-rule:nonzero;stroke:#000000;stroke-width:1;stroke-linecap:round;stroke-miterlimit:4;stroke-dasharray:none;stroke-dashoffset:0;stroke-opacity:1"
     id="rect3060"
     width="253.26128"
     height="21.840055"
     x="70.543411"
     y="118.8237" />
  <rect
     style="opacity:1;fill:#d39f4d;fill-opacity:1;fill-rule:nonzero;stroke:#000000;stroke-width:1;stroke-linecap:round;stroke-miterlimit:4;stroke-dasharray:none;stroke-dashoffset:0;stroke-opacity:1"
     id="rect3062"
     width="212.76312"
     height="21.840055"
     x="77.674759"
     y="96.741623" />
  <rect
     style="opacity:1;fill:#d39f4d;fill-opacity:1;fill-rule:nonzero;stroke:#000000;stroke-width:1;stroke-linecap:round;stroke-miterlimit:4;stroke-dasharray:none;stroke-dashoffset:0;stroke-opacity:1"
     id="rect3064"
     width="176.55301"
     height="21.840055"
     x="84.80864"
     y="74.322235" />
  <rect
     style="opacity:1;fill:#d39f4d;fill-opacity:1;fill-rule:nonzero;stroke:#000000;stroke-width:1;stroke-linecap:round;stroke-miterlimit:4;stroke-dasharray:none;stroke-dashoffset:0;stroke-opacity:1"
     id="rect3066"
     width="139.64398"
     height="21.840055"
     x="93.850708"
     y="52.240154" />
  <rect
     style="opacity:1;fill:#d39f4d;fill-opacity:1;fill-rule:nonzero;stroke:#000000;stroke-width:1;stroke-linecap:round;stroke-miterlimit:4;stroke-dasharray:none;stroke-dashoffset:0;stroke-opacity:1"
     id="rect3068"
     width="99.875031"
     height="21.840055"
     x="105.35862"
     y="30.495378" />
  <rect
     style="opacity:1;fill:#d39f4d;fill-opacity:1;fill-rule:nonzero;stroke:#000000;stroke-width:1;stroke-linecap:round;stroke-miterlimit:4;stroke-dasharray:none;stroke-dashoffset:0;stroke-opacity:1"
     id="rect3070"
     width="47.695526"
     height="21.840055"
     x="124.93889"
     y="8.4132938" />
  <path
     style="fill:none;fill-opacity:0.75;fill-rule:evenodd;stroke:#000000;stroke-width:1;stroke-linecap:butt;stroke-linejoin:miter;stroke-miterlimit:4;stroke-dasharray:none;stroke-opacity:1"
     d="M 7.3746108e-4,397.33208 457.37353,396.65749"
     id="path3072" />
  <path
     style="fill:none;fill-opacity:0.75;fill-rule:evenodd;stroke:#000000;stroke-width:1;stroke-linecap:butt;stroke-linejoin:miter;stroke-miterlimit:4;stroke-dasharray:none;stroke-opacity:1"
     d="M 58.015572,184.83587 V 395.9829"
     id="path3074" />
  <path
     style="fill:none;fill-opacity:0.75;fill-rule:evenodd;stroke:#000000;stroke-width:1;stroke-linecap:butt;stroke-linejoin:miter;stroke-miterlimit:4;stroke-dasharray:none;stroke-opacity:1"
     d="M 409.47756,184.83587 V 394.63372"
     id="path3076" />
  <path
     style="fill:none;fill-opacity:0.75;fill-rule:evenodd;stroke:#000000;stroke-width:1;stroke-linecap:butt;stroke-linejoin:miter;stroke-miterlimit:4;stroke-dasharray:none;stroke-opacity:1"
     d="M 62.906362,163.8078 V 399.24011"
     id="path3078" />
  <path
     style="fill:none;fill-opacity:0.75;fill-rule:evenodd;stroke:#000000;stroke-width:1;stroke-linecap:butt;stroke-linejoin:miter;stroke-miterlimit:4;stroke-dasharray:none;stroke-opacity:1"
     d="M 360.15057,162.37678 V 395.78532"
     id="path3080" />
  <path
     style="fill:none;fill-opacity:0.75;fill-rule:evenodd;stroke:#000000;stroke-width:1;stroke-linecap:butt;stroke-linejoin:miter;stroke-miterlimit:4;stroke-dasharray:none;stroke-opacity:1"
     d="m 70.832812,139.63827 0.67459,257.01922"
     id="path3082" />
  <path
     style="fill:none;fill-opacity:0.75;fill-rule:evenodd;stroke:#000000;stroke-width:1;stroke-linecap:butt;stroke-linejoin:miter;stroke-miterlimit:4;stroke-dasharray:none;stroke-opacity:1"
     d="M 323.52506,140.8717 V 399.24011"
     id="path3084" />
  <path
     style="fill:none;fill-opacity:0.75;fill-rule:evenodd;stroke:#000000;stroke-width:1;stroke-linecap:butt;stroke-linejoin:miter;stroke-miterlimit:4;stroke-dasharray:none;stroke-opacity:1"
     d="M 77.578721,119.08721 V 399.71712"
     id="path3086" />
  <path
     style="fill:none;fill-opacity:0.75;fill-rule:evenodd;stroke:#000000;stroke-width:1;stroke-linecap:butt;stroke-linejoin:miter;stroke-miterlimit:4;stroke-dasharray:none;stroke-opacity:1"
     d="M 289.99309,117.93561 V 397.21634"
     id="path3088" />
  <path
     style="fill:none;fill-opacity:0.75;fill-rule:evenodd;stroke:#000000;stroke-width:1;stroke-linecap:butt;stroke-linejoin:miter;stroke-miterlimit:4;stroke-dasharray:none;stroke-opacity:1"
     d="M 84.772711,96.994349 V 399.21118"
     id="path3090" />
  <path
     style="fill:none;fill-opacity:0.75;fill-rule:evenodd;stroke:#000000;stroke-width:1;stroke-linecap:butt;stroke-linejoin:miter;stroke-miterlimit:4;stroke-dasharray:none;stroke-opacity:1"
     d="M 260.78808,96.266849 V 395.78532"
     id="path3092" />
  <path
     style="fill:none;fill-opacity:0.75;fill-rule:evenodd;stroke:#000000;stroke-width:1;stroke-linecap:butt;stroke-linejoin:miter;stroke-miterlimit:4;stroke-dasharray:none;stroke-opacity:1"
     d="M 94.048332,74.482355 V 396.93692"
     id="path3094" />
  <path
     style="fill:none;fill-opacity:0.75;fill-rule:evenodd;stroke:#000000;stroke-width:1;stroke-linecap:butt;stroke-linejoin:miter;stroke-miterlimit:4;stroke-dasharray:none;stroke-opacity:1"
     d="M 233.12984,74.564195 V 399.04253"
     id="path3096" />
  <path
     style="fill:none;fill-opacity:0.75;fill-rule:evenodd;stroke:#000000;stroke-width:1;stroke-linecap:butt;stroke-linejoin:miter;stroke-miterlimit:4;stroke-dasharray:none;stroke-opacity:1"
     d="M 105.43454,52.023255 V 398.08851"
     id="path3098" />
  <path
     style="fill:none;fill-opacity:0.75;fill-rule:evenodd;stroke:#000000;stroke-width:1;stroke-linecap:butt;stroke-linejoin:miter;stroke-miterlimit:4;stroke-dasharray:none;stroke-opacity:1"
     d="M 204.5176,53.174865 V 397.89093"
     id="path3100" />
  <path
     style="fill:none;fill-opacity:0.75;fill-rule:evenodd;stroke:#000000;stroke-width:1;stroke-linecap:butt;stroke-linejoin:miter;stroke-miterlimit:4;stroke-dasharray:none;stroke-opacity:1"
     d="M 125.07953,29.959345 V 396.93692"
     id="path3102" />
  <path
     style="fill:none;fill-opacity:0.75;fill-rule:evenodd;stroke:#000000;stroke-width:1;stroke-linecap:butt;stroke-linejoin:miter;stroke-miterlimit:4;stroke-dasharray:none;stroke-opacity:1"
     d="M 172.41664,31.308525 V 397.61151"
     id="path3104" />
  <path
     style="fill:none;fill-opacity:0.75;fill-rule:evenodd;stroke:#000000;stroke-width:1;stroke-linecap:butt;stroke-linejoin:miter;stroke-miterlimit:4;stroke-dasharray:none;stroke-opacity:1"
     d="M 143.68865,1.0185565e-5 V 396.97573"
     id="path3106" />
  <path
     style="fill:none;fill-opacity:0.75;fill-rule:evenodd;stroke:#000000;stroke-width:1.7;stroke-linecap:butt;stroke-linejoin:miter;stroke-miterlimit:4;stroke-dasharray:none;stroke-opacity:1"
     d="m 129.68194,386.77954 c 4.56027,-10.46208 13.21908,-9.4799 26.92941,-7.38164 13.22254,3.7041 14.45359,2.30914 15.05688,18.40458 -3.57454,10.84884 -15.20672,14.98505 -24.06983,16.70741 -8.9285,1.11703 -12.72937,2.786 -19.6322,-5.43434 -4.56235,-6.68931 -2.53321,-15.08822 1.71574,-22.29601 z"
     id="path3983"
     sodipodi:nodetypes="cccccc" />
  <path
     style="fill:none;fill-opacity:0.75;fill-rule:evenodd;stroke:#000000;stroke-width:1.7;stroke-linecap:butt;stroke-linejoin:miter;stroke-miterlimit:4;stroke-dasharray:none;stroke-opacity:1"
     d="m 113.6671,381.40719 c 9.74153,-14.44068 28.23822,-13.08499 57.52585,-10.18878 28.24562,5.11271 31.82937,3.66428 33.1181,25.88061 -7.63581,14.97451 -33.43816,20.20667 -52.37132,22.584 -19.0728,1.54183 -27.19212,3.84548 -41.93775,-7.50094 -8.26536,-14.26265 -5.21325,-21.49904 3.66512,-30.77489 z"
     id="path3985"
     sodipodi:nodetypes="cccccc" />
  <path
     style="fill:none;fill-opacity:0.75;fill-rule:evenodd;stroke:#000000;stroke-width:1.7;stroke-linecap:butt;stroke-linejoin:miter;stroke-miterlimit:4;stroke-dasharray:none;stroke-opacity:1"
     d="m 107.35416,377.5595 c 13.76666,-18.75652 39.90606,-17.94968 81.29514,-14.18789 21.43794,5.44822 39.36376,3.90133 44.26476,32.7574 -2.73612,22.31196 -44.71708,27.10385 -71.47327,30.19171 -26.95357,2.00263 -38.42774,5.94878 -59.26616,-8.7887 -14.269409,-17.99084 -7.718838,-27.91467 5.17953,-39.97252 z"
     id="path3987"
     sodipodi:nodetypes="cccccc" />
  <path
     style="fill:none;fill-opacity:0.75;fill-rule:evenodd;stroke:#000000;stroke-width:1.7;stroke-linecap:butt;stroke-linejoin:miter;stroke-miterlimit:4;stroke-dasharray:none;stroke-opacity:1"
     d="m 101.47836,367.39473 c 17.32458,-26.86036 50.21964,-24.81573 102.3056,-19.42863 36.6929,7.60187 67.99894,40.49828 52.92576,58.22312 -19.04321,24.99127 -53.49497,27.97849 -87.16622,32.40047 -33.91964,2.86786 -48.35927,7.15277 -74.583308,-13.95213 -19.79414,-31.61411 -7.348801,-38.57061 6.518168,-57.24283 z"
     id="path3989"
     sodipodi:nodetypes="cccccc" />
  <path
     style="fill:none;fill-opacity:0.75;fill-rule:evenodd;stroke:#000000;stroke-width:1.7;stroke-linecap:butt;stroke-linejoin:miter;stroke-miterlimit:4;stroke-dasharray:none;stroke-opacity:1"
     d="m 97.806272,357.15735 c 20.869688,-36.30979 60.495998,-32.90103 123.240168,-25.61877 36.56387,13.53006 44.22143,11.04976 65.53358,52.06974 19.90256,39.59636 -64.1955,62.46343 -104.7568,68.44105 -40.86054,3.87677 -60.2787,11.01828 -91.868899,-17.51127 -21.511519,-37.97757 -11.81696,-48.08069 7.851951,-77.38075 z"
     id="path3991"
     sodipodi:nodetypes="cccccc" />
  <path
     style="fill:none;fill-opacity:0.75;fill-rule:evenodd;stroke:#000000;stroke-width:1.7;stroke-linecap:butt;stroke-linejoin:miter;stroke-miterlimit:4;stroke-dasharray:none;stroke-opacity:1"
     d="m 94.829322,342.46291 c 81.316048,-92.82598 352.942208,33.77662 162.411388,123.3547 -23.18462,10.90025 -36.21175,12.1822 -62.70706,12.37419 -42.85801,-3.50106 -71.53588,-6.51946 -109.021679,-41.32521 -24.775819,-28.32326 -13.756569,-63.88514 9.317351,-94.40368 z"
     id="path3993"
     sodipodi:nodetypes="csccc" />
  <path
     style="fill:none;fill-opacity:0.75;fill-rule:evenodd;stroke:#000000;stroke-width:1.7;stroke-linecap:butt;stroke-linejoin:miter;stroke-miterlimit:4;stroke-dasharray:none;stroke-opacity:1"
     d="m 106.38893,314.52851 c 82.66707,-52.94896 245.81239,27.97922 253.10987,78.57597 6.59625,45.73482 -27.70631,93.59606 -76.22486,120.32385 C 231.26609,542.0783 163.58674,511.37058 90.275081,460.0896 74.967422,448.99892 71.751132,441.32531 68.479412,431.24111 c -3.30618,-10.19041 -5.65735,-20.67095 -5.13215,-35.67987 0.57676,-16.72028 3.43241,-28.60289 9.73734,-43.23602 6.304939,-14.63312 21.3231,-31.53976 33.304328,-37.79671 z"
     id="path3995"
     sodipodi:nodetypes="csscsssc" />
  <path
     style="fill:none;fill-opacity:0.75;fill-rule:evenodd;stroke:#000000;stroke-width:1.7;stroke-linecap:butt;stroke-linejoin:miter;stroke-miterlimit:4;stroke-dasharray:none;stroke-opacity:1"
     d="M 95.993252,304.05468 C 124.76781,282.70938 192.25821,266.08669 296.08277,280.50856 396.22939,306.01729 422.57264,382.75421 404.34523,424.17951 357.15675,502.74447 306.1148,568.97631 224.74252,556.23923 160.96886,541.97445 123.7554,543.85169 81.560621,483.05848 36.388682,398.9016 66.293762,336.51359 95.993252,304.05468 Z"
     id="path3997"
     sodipodi:nodetypes="cccccc" />
  <path
     sodipodi:type="arc"
     style="opacity:1;fill:#060303;fill-opacity:1;fill-rule:nonzero;stroke:#020205;stroke-width:1;stroke-linecap:round;stroke-miterlimit:4;stroke-dasharray:none;stroke-dashoffset:0;stroke-opacity:1"
     id="path4872"
     sodipodi:cx="143.89708"
     sodipodi:cy="397.19443"
     sodipodi:rx="1.6695279"
     sodipodi:ry="1.9080319"
     d="m 143.76023,395.29282 a 1.6695279,1.9080319 0 0 1 1.79901,1.72252 1.6695279,1.9080319 0 0 1 -1.48563,2.07642 1.6695279,1.9080319 0 0 1 -1.83447,-1.67295 1.6695279,1.9080319 0 0 1 1.44183,-2.11636"
     sodipodi:start="4.6303252"
     sodipodi:end="4.5825837"
     sodipodi:open="true"
     sodipodi:arc-type="arc" />
  <path
     sodipodi:type="arc"
     style="opacity:1;fill:none;fill-opacity:1;fill-rule:nonzero;stroke:#051afd;stroke-width:1.875;stroke-linecap:round;stroke-miterlimit:4;stroke-dasharray:none;stroke-dashoffset:0;stroke-opacity:1"
     id="path4874"
     sodipodi:cx="206.12276"
     sodipodi:cy="474.13583"
     sodipodi:rx="0.59625995"
     sodipodi:ry="0"
     sodipodi:start="4.6303252"
     sodipodi:end="4.5825837"
     sodipodi:open="true"
     sodipodi:arc-type="arc" />
</svg>
