<?xml version="1.0" encoding="UTF-8" standalone="no"?>
<svg
   xmlns:dc="http://purl.org/dc/elements/1.1/"
   xmlns:cc="http://creativecommons.org/ns#"
   xmlns:rdf="http://www.w3.org/1999/02/22-rdf-syntax-ns#"
   xmlns:svg="http://www.w3.org/2000/svg"
   xmlns="http://www.w3.org/2000/svg"
   xmlns:sodipodi="http://sodipodi.sourceforge.net/DTD/sodipodi-0.dtd"
   xmlns:inkscape="http://www.inkscape.org/namespaces/inkscape"
   width="323.70959"
   height="369.39105"
   version="1.1"
   id="svg15"
   sodipodi:docname="Right-hand_grip_rule.svg"
   inkscape:version="1.0.2 (1.0.2+r75+1)"
   inkscape:export-filename="/mnt/big/home/chrisj/workspace/kwantrace/image/Right-hand_grip_rule.png"
   inkscape:export-xdpi="94.900002"
   inkscape:export-ydpi="94.900002">
  <metadata
     id="metadata19">
    <rdf:RDF>
      <cc:Work
         rdf:about="">
        <dc:format>image/svg+xml</dc:format>
        <dc:type
           rdf:resource="http://purl.org/dc/dcmitype/StillImage" />
        <dc:title />
      </cc:Work>
    </rdf:RDF>
  </metadata>
  <sodipodi:namedview
     pagecolor="#ffffff"
     bordercolor="#666666"
     borderopacity="1"
     objecttolerance="10"
     gridtolerance="10"
     guidetolerance="10"
     inkscape:pageopacity="0"
     inkscape:pageshadow="2"
     inkscape:window-width="1920"
     inkscape:window-height="1043"
     id="namedview17"
     showgrid="false"
     inkscape:zoom="1.1167263"
     inkscape:cx="-250.92944"
     inkscape:cy="232.06201"
     inkscape:window-x="3840"
     inkscape:window-y="0"
     inkscape:window-maximized="1"
     inkscape:current-layer="g13"
     inkscape:document-rotation="0"
     fit-margin-top="0"
     fit-margin-left="0"
     fit-margin-right="0"
     fit-margin-bottom="0" />
  <defs
     id="defs5">
    <marker
       style="overflow:visible"
       id="marker1374"
       refX="0"
       refY="0"
       orient="auto"
       inkscape:stockid="Arrow1Send"
       inkscape:isstock="true">
      <path
         transform="matrix(-0.2,0,0,-0.2,-1.2,0)"
         style="fill:#000000;fill-opacity:1;fill-rule:evenodd;stroke:#000000;stroke-width:1pt;stroke-opacity:1"
         d="M 0,0 5,-5 -12.5,0 5,5 Z"
         id="path1372" />
    </marker>
    <marker
       style="overflow:visible"
       id="Arrow1Lstart"
       refX="0"
       refY="0"
       orient="auto"
       inkscape:stockid="Arrow1Lstart"
       inkscape:isstock="true">
      <path
         transform="matrix(0.8,0,0,0.8,10,0)"
         style="fill:#000000;fill-opacity:1;fill-rule:evenodd;stroke:#000000;stroke-width:1pt;stroke-opacity:1"
         d="M 0,0 5,-5 -12.5,0 5,5 Z"
         id="path852" />
    </marker>
    <marker
       style="overflow:visible"
       id="Arrow1Lend"
       refX="0"
       refY="0"
       orient="auto"
       inkscape:stockid="Arrow1Lend"
       inkscape:isstock="true">
      <path
         transform="matrix(-0.8,0,0,-0.8,-10,0)"
         style="fill:#0000ff;fill-opacity:1;fill-rule:evenodd;stroke:#0000ff;stroke-width:1pt;stroke-opacity:1"
         d="M 0,0 5,-5 -12.5,0 5,5 Z"
         id="path855" />
    </marker>
    <marker
       orient="auto"
       refY="0"
       refX="0"
       id="a"
       overflow="visible">
      <path
         d="M -0.5,0 -1.5,-1 2,0 -1.5,1 Z"
         id="path2" />
    </marker>
  </defs>
  <path
     d="m 153.00958,307.90367 -10.9,-5.7 c -1.2,-1 -2.6,-1.8 -4,-2.5 -1.2,-0.4 -4.7,-4.5 -10.4,-12.4 -5.55212,-7.16838 -8.19482,-16.16784 -7.4,-25.2 0.5,-3 1.2,-6 1.6,-6.4 0.4,-0.4 -0.1,-3.1 -1.2,-6 -3.5,-9 -3,-14.1 2,-24.3 2.5,-5 4.4,-10.5 4.3,-12.1 0,-2.9 0,-5.7 0.3,-8.6 0.6,-7.5 4.7,-12.1 13.8,-15.5 l 6.3,-2.4 0.3,-5 c 0.3,-3.6 1.5,-7 3.4,-10.1 2.7,-4.6 3.7,-5.4 9.2,-7.7 9.6,-4 35.4,4 56.5,10.9 2.2,0.7 19.1,9 24,10.4 5.3,1.4 8.4,0.2 10.4,-4 1.1,-2.4 3.7,-13 7.8,-32.5 2.8,-13.6 5.4,-17 21.3,-28.3 9.5,-6.8 12.3,-8 17.9,-7.7 13.5,0.5 19,15.2 9.4,25 -4.61754,5.43506 -7.2608,12.27228 -7.5,19.4 -0.1,3 -0.6,7.4 -1.2,9.9 -1,5.2 -0.7,11.5 1.6,27.1 1.7,9.3 1.9,18.8 0.5,28.1 -1.5,7.8 0.3,30.9 3.4,45.8 1.1,5.2 3.5,11.7 8.1,21.6 5.6,11.3 9.4,23.5 11.2,36 l -73.5,31.1 c 0,0 -9.2,-4.6 -14,-10.1 -2.2,-2.6 -13.6,-1.7 -31.1,-6.7 -15.4,-4.3 -20.8,-8.7 -30,-15.5 -7.7,-5.8 -10,-10.1 -15.2,-13 l -6.9,-3.6 m -18.7,-25.6 c -106.533328,65 -53.266665,32.5 0,0 z"
     id="path850"
     sodipodi:nodetypes="cccccsccccccccccccccccccccccccccccccc"
     style="fill:#adadff;fill-opacity:1" />
  <path
     d="m 153.00958,307.90367 -10.9,-5.7 c -1.2,-1 -2.6,-1.8 -4,-2.5 -1.2,-0.4 -4.7,-4.5 -10.4,-12.4 a 36,36 0 0 1 -7.4,-25.2 c 0.5,-3 1.2,-6 1.6,-6.4 0.4,-0.4 -0.1,-3.1 -1.2,-6 -3.5,-9 -3,-14.1 2,-24.3 2.5,-5 4.4,-10.5 4.3,-12.1 0,-2.9 0,-5.7 0.3,-8.6 0.6,-7.5 4.7,-12.1 13.8,-15.5 l 6.3,-2.4 0.3,-5 c 0.3,-3.6 1.5,-7 3.4,-10.1 2.7,-4.6 3.7,-5.4 9.2,-7.7 9.6,-4 35.4,4 56.5,10.9 2.2,0.7 19.1,9 24,10.4 5.3,1.4 8.4,0.2 10.4,-4 1.1,-2.4 3.7,-13 7.8,-32.5 2.8,-13.6 5.4,-17 21.3,-28.3 9.5,-6.8 12.3,-8 17.9,-7.7 13.5,0.5 19,15.2 9.4,25 a 31.6,31.6 0 0 0 -7.5,19.4 c -0.1,3 -0.6,7.4 -1.2,9.9 -1,5.2 -0.7,11.5 1.6,27.1 1.7,9.3 1.9,18.8 0.5,28.1 -1.5,7.8 0.3,30.9 3.4,45.8 1.1,5.2 3.5,11.7 8.1,21.6 5.6,11.3 9.4,23.5 11.2,36 l -7.5,1.4 -2.6,-10.9 a 92,92 0 0 0 -8.2,-22.5 c -3,-6 -5.4,-12.1 -7.6,-18.4 a 176.5,176.5 0 0 1 -4.6,-56.4 c 1,-8 0.4,-16.4 -2.2,-32.8 a 59,59 0 0 1 0,-21.4 c 0.5,-3.2 1,-8.1 1,-10.9 0,-4.7 3.7,-12.8 10.6,-23.4 2.7,-4.1 1.2,-8.5 -3,-9.3 -4.5,-0.9 -5.3,-0.5 -14,5.5 -15.3,10.8 -16.2,12.3 -20.4,31.8 -4.8,22.7 -6.1,26.9 -9.2,30.3 -4.3,4.8 -11,6.5 -17.7,4.5 a 290,290 0 0 1 -24.6,-10.6 c -12.7,-6 -41.7,-14.2 -46.8,-12.7 -4.8,1.4 -9,4.8 -10.2,8.2 -3.2,10.4 1,18.9 8,26.4 6.6,5.5 27.4,16.6 33.1,17.6 5.6,1 6.8,0.8 9,-1.4 1.3,-1.3 1.3,-2.6 0,-6.7 -1.2,-4.4 -2.8,-6.6 -10,-14.3 -9.4,-10 -13.9,-17.8 -10,-17.4 h 4.3 c 1.2,0 2.5,0.6 2.8,1.4 0.3,0.9 1.6,2.8 3,4.2 l 12.5,13.3 c 4.2,5.5 7.4,15.5 6.2,20 -0.5,1.9 -1.4,3.6 -2.7,5.1 -1.3,1.3 -1.6,2.4 -0.8,3.2 0.6,0.7 1.9,3.3 2.9,5.7 1.4,3.6 1.6,5.6 0.7,10.5 -1.4,8.3 -3.2,10.2 -11,11.8 l -6,1.3 2,5.8 c 3.6,10.4 -0.4,17.4 -11.7,20.7 -5.2,1.6 -6.4,2.2 -6,3.4 0.7,2.6 -1.1,9.8 -3.4,13.3 -1.4,2 -3.1,3.7 -5.2,4.9 l -3,1.5 8.9,9.8 c 9.2,8.2 15.7,9.8 27.7,14 19.3,6.7 29.2,3 34.6,10 2.4,3 12.2,9 12,9.3 l -2,2.3 c -0.5,0.6 -0.4,0.3 -2.4,3 0,0 -9.2,-4.6 -14,-10.1 -2.2,-2.6 -13.6,-1.7 -31.1,-6.7 -15.4,-4.3 -20.8,-8.7 -30,-15.5 -7.7,-5.8 -10,-10.1 -15.2,-13 l -6.9,-3.6 m 20.9,-12 c 3,-7 -0.4,-11.4 -12,-15.5 -9.5,-3.2 -18.4,-7.8 -26.5,-13.5 -4.1,-2.8 -6.7,-4 -7.1,-3.3 -1.5,2.6 1.7,12.6 6,18.7 6.2,9.2 8.8,11.5 17.3,15.4 10.7,5 19.6,4.3 22.3,-1.8 z m 19.3,-22.2 c 1.7,-3.2 0.2,-8.5 -4,-13 -2.5,-2.8 -4.7,-4 -10.3,-5.2 -4,-0.9 -7.5,-2 -8,-2.4 -0.5,-0.4 -4.6,-2 -9.1,-3.4 a 56.9,56.9 0 0 1 -26,-15.7 l -5.8,-6.2 -1.9,4.8 c -1.7,4.4 -1.7,5.5 0,11.4 1.4,4.8 4.4,8.5 7,12.7 3.8,3.8 19.8,12.8 28,15.6 4.9,1.6 11,3.9 13.6,5 4,1.6 5.5,1.7 9.9,0.4 4,-1.1 5.5,-2.1 6.6,-4 z m 14.3,-27.3 c 1.3,-4 0.5,-8.6 -2.2,-11.8 -1.7,-2.2 -4.3,-3.4 -9.9,-4.8 -5,-1.3 -12,-4.5 -21.1,-9.6 -13.8,-7.8 -19.6,-12.7 -22.9,-19.2 -2.6,-5 -4.5,-5.8 -9,-3.7 -7.3,3.5 -8.4,6.5 -6.8,18.7 0.8,6.6 0.8,6.6 6.8,13 6.8,7.2 9.5,8.7 26.3,14.6 13,4.5 18.9,6 27.4,6.4 7.3,0.4 10.3,-0.5 11.4,-3.6 z"
     id="path7" />
  <g
     fill="none"
     stroke="#000000"
     stroke-width="9"
     stroke-linecap="round"
     marker-end="url(#a)"
     id="g13"
     transform="translate(-25.490415,29.803671)">
    <path
       style="fill:none;fill-opacity:1;stroke:#000000;stroke-width:10;stroke-miterlimit:4;stroke-dasharray:none;marker-end:none"
       id="path1422"
       sodipodi:type="arc"
       sodipodi:cx="170.82799"
       sodipodi:cy="-221.62192"
       sodipodi:rx="64.932159"
       sodipodi:ry="17.753656"
       sodipodi:start="0"
       sodipodi:end="3.8780257"
       sodipodi:open="true"
       sodipodi:arc-type="arc"
       transform="matrix(0.94915547,0.31480771,0.31480771,-0.94915547,0,0)"
       d="m 235.76015,-221.62192 a 64.932159,17.753656 0 0 1 -47.10508,17.07144 64.932159,17.753656 0 0 1 -72.97041,-7.69753 64.932159,17.753656 0 0 1 7.0371,-21.29814" />
    <path
       style="fill:none;fill-opacity:1;stroke:#000000;stroke-width:10;stroke-miterlimit:4;stroke-dasharray:none;marker-end:none"
       id="path1174"
       sodipodi:type="arc"
       sodipodi:cx="177.11945"
       sodipodi:cy="-39.518948"
       sodipodi:rx="64.932159"
       sodipodi:ry="17.753656"
       sodipodi:start="0"
       sodipodi:end="3.8780257"
       sodipodi:open="true"
       sodipodi:arc-type="arc"
       transform="matrix(0.94915547,0.31480771,0.31480771,-0.94915547,0,0)"
       d="m 242.05161,-39.518948 a 64.932159,17.753656 0 0 1 -47.10508,17.071437 64.932159,17.753656 0 0 1 -72.97041,-7.69753 64.932159,17.753656 0 0 1 7.0371,-21.298142" />
    <path
       id="rect907"
       style="opacity:1;fill:#ff00ff;fill-opacity:1;stroke:none;stroke-width:2;marker-end:none"
       d="M 163.63895,39.93526 130.41546,56.842618 201.98913,-29.803675 196.36512,81.069923 183.9896,47.617757 74.786338,336.89329 c -2.613151,6.92214 -22.911492,-0.89894 -20.350654,-7.68249 z"
       sodipodi:nodetypes="cccccssc" />
    <path
       style="fill:none;fill-opacity:1;stroke:#000000;stroke-width:10;stroke-miterlimit:4;stroke-dasharray:none"
       id="path1176"
       sodipodi:type="arc"
       sodipodi:cx="177.11945"
       sodipodi:cy="-39.518948"
       sodipodi:rx="64.932159"
       sodipodi:ry="17.753656"
       sodipodi:start="2.224477"
       sodipodi:end="5.4183299"
       sodipodi:open="true"
       sodipodi:arc-type="arc"
       transform="matrix(0.94915547,0.31480771,0.31480771,-0.94915547,0,0)"
       d="m 137.63339,-25.425191 a 64.932159,17.753656 0 0 1 -24.74102,-16.702971 64.932159,17.753656 0 0 1 41.43358,-14.014638 64.932159,17.753656 0 0 1 64.91824,3.113294" />
    <path
       style="fill:none;fill-opacity:1;stroke:#000000;stroke-width:10;stroke-miterlimit:4;stroke-dasharray:none"
       id="path1424"
       sodipodi:type="arc"
       sodipodi:cx="170.82799"
       sodipodi:cy="-221.62192"
       sodipodi:rx="64.932159"
       sodipodi:ry="17.753656"
       sodipodi:start="2.224477"
       sodipodi:end="5.4183299"
       sodipodi:open="true"
       sodipodi:arc-type="arc"
       transform="matrix(0.94915547,0.31480771,0.31480771,-0.94915547,0,0)"
       d="m 131.34193,-207.52816 a 64.932159,17.753656 0 0 1 -24.74102,-16.70297 64.932159,17.753656 0 0 1 41.43359,-14.01464 64.932159,17.753656 0 0 1 64.91824,3.11329" />
  </g>
</svg>
